<?xml version="1.0" encoding="UTF-8"?><svg id="_图层_1" xmlns="http://www.w3.org/2000/svg" xmlns:xlink="http://www.w3.org/1999/xlink" viewBox="0 0 72.67 97.42"><defs><style>.cls-1{fill:#fff;font-family:TrebuchetMS, 'Trebuchet MS';font-size:58.78px;}.cls-2{fill:url(#_未命名的渐变_7);}.cls-3{fill:#8c6239;}</style><linearGradient id="_未命名的渐变_7" x1="36.33" y1="97.87" x2="36.33" y2="29.29" gradientUnits="userSpaceOnUse"><stop offset="0" stop-color="#fff"/><stop offset=".15" stop-color="#fbf6e7"/><stop offset=".55" stop-color="#f2e0aa"/><stop offset=".84" stop-color="#ecd284"/><stop offset="1" stop-color="#eacd76"/></linearGradient></defs><path class="cls-2" d="M36.33,96.95C15.18,95.59.4,80.87.4,61.14c0-10.95,8.79-21.95,18.1-33.6,6.77-8.47,13.76-17.22,17.83-26.53,4.07,9.31,11.07,18.06,17.83,26.53,9.31,11.65,18.1,22.65,18.1,33.6,0,19.73-14.78,34.45-35.93,35.81Z"/><path class="cls-3" d="M36.33,2c4.14,9.05,10.93,17.55,17.52,25.8,9.26,11.59,18.01,22.54,18.01,33.35,0,9.74-3.56,18.32-10.3,24.81-6.44,6.2-15.39,9.96-25.23,10.59-9.84-.64-18.8-4.4-25.23-10.59-6.74-6.49-10.3-15.07-10.3-24.81,0-10.81,8.75-21.76,18.01-33.35,6.59-8.24,13.38-16.75,17.52-25.8M36.33,0C26.99,22.43,0,41.79,0,61.14c0,20.72,16.01,34.91,36.33,36.21,20.32-1.29,36.33-15.49,36.33-36.21,0-19.35-26.99-38.71-36.33-61.14h0Z"/><text class="cls-1" transform="translate(15.48 82.01)"><tspan x="0" y="0">M</tspan></text></svg>

